<svg id="Layer_1" data-name="Layer 1" xmlns="http://www.w3.org/2000/svg" viewBox="0 0 976.18 425.84"><defs><style>.cls-1,.cls-2{fill:#fff;}.cls-2{font-size:44.64px;font-family:BwAletaNo20-Regular, "Bw Aleta No 20";}</style></defs><title>lOGO RAQIB</title><path class="cls-1" d="M59.3,246.86H31.72V218.1C38.59,232.19,47.84,242.78,59.3,246.86Z"/><path class="cls-1" d="M59.54,222.48v21.83c-13.82-15.6-17.14-42-8.33-61.07C49.3,198.71,52.59,212.18,59.54,222.48Z"/><path class="cls-1" d="M83.66,107.88c9.44,1.67,18.85,4.27,26.24,10.77-4.46-.85-7.59.69-11.23.08C92.11,117.63,94.32,112.08,83.66,107.88Z"/><path class="cls-1" d="M185.68,244.22v2.64h-30L120.73,183h-27a48.49,48.49,0,0,1,3.62-15.26,33.71,33.71,0,0,1,8.45-11.83c-1.77.13-3.55.32-5.26.61-.83.1-1.63.23-2.43.39-3,.54-5.72,1.21-8.19,1.9l-1.86.54a81,81,0,0,0-8.87,3.17c14.22-10.42,31.64-13.55,42.71-13.22,9.28.26,16.23,3.81,14.37,10.34,7.15-4.92,9.38-13.11,6.7-19.42-2.82-6.65-11-11.38-18.25-14.41l2.62-2.38c-5.7-25.14-38.94-33.2-74.45-26.55a162.5,162.5,0,0,0-21.17,5.81V79h90.55C157.62,79,181,99.75,181,131.11c0,22.53-12.59,39.54-33.13,47.28Z"/><path class="cls-1" d="M399.71,244.21v2.65h-29.6L351.78,207.1H262.53L244.2,246.86H214.38v-2.65L295,79h24.3Zm-59-61-33.57-72.89-33.58,72.89Z"/><path class="cls-1" d="M587,219.25l19.21,19.22L587.91,256.8,567.15,236c-13.92,8.39-31.37,13-51.25,13-54.12,0-90.35-34.46-90.35-86.15s36.23-86.15,90.35-86.15c54.34,0,90.34,34.46,90.34,86.15C606.24,185.45,599.4,204.67,587,219.25Zm-39.1-2.43-30-30,18.33-18.34,30.93,30.93c6.4-9.94,10.16-22.31,10.16-36.45,0-36.67-24.52-61.41-61.41-61.41s-61.41,24.74-61.41,61.41S479,224.33,515.9,224.33C528.05,224.33,538.87,221.68,547.93,216.82Z"/><path class="cls-1" d="M660.79,79h27.84V246.86H660.79Z"/><path class="cls-1" d="M909.08,198.93c0,28.72-22.54,47.93-56.11,47.93H751.57V79H845.9c32,0,53.46,17.45,53.46,44,0,14.8-7.73,26.51-21,33.58C897.37,163.58,909.08,179.05,909.08,198.93ZM779.41,150.11h65.16c15.69,0,26.07-9.5,26.07-23.86,0-14.14-10.38-23.41-26.07-23.41H779.41Zm101,47c0-15.46-11.49-25.62-28.94-25.62h-72V223h72C868.87,223,880.36,212.84,880.36,197.16Z"/><text class="cls-2" transform="translate(31.72 312.5)">PORTAL ACCESS TECHNOLOGY</text><path class="cls-1" d="M935.34,70.34v.22H933l-4.1-7.45H921v7.45h-2.2V52h9.88c3.74,0,6.23,2.22,6.23,5.56a5.26,5.26,0,0,1-3.88,5.2ZM921,61.21h7.56c2.42,0,4-1.46,4-3.64s-1.64-3.66-4-3.66H921Z"/><path class="cls-1" d="M926.77,79a17.7,17.7,0,1,1,17.7-17.7A17.71,17.71,0,0,1,926.77,79Zm0-33.57a15.88,15.88,0,1,0,15.88,15.87A15.9,15.9,0,0,0,926.77,45.41Z"/></svg>