<?xml version="1.0" standalone="no"?>
<!DOCTYPE svg PUBLIC "-//W3C//DTD SVG 20010904//EN"
 "http://www.w3.org/TR/2001/REC-SVG-20010904/DTD/svg10.dtd">
<svg version="1.0" xmlns="http://www.w3.org/2000/svg"
 width="3508.000000pt" height="1132.000000pt" viewBox="0 0 3508.000000 1132.000000"
 preserveAspectRatio="xMidYMid meet">

<g transform="translate(0.000000,1132.000000) scale(0.100000,-0.100000)"
fill="#000000" stroke="none">
<path d="M33381 10699 c-240 -43 -450 -243 -507 -484 -23 -101 -15 -266 19
-357 70 -190 205 -325 395 -395 91 -34 256 -42 357 -19 218 52 406 229 469
446 99 336 -107 704 -444 795 -71 19 -220 27 -289 14z m297 -85 c408 -136 530
-645 229 -948 -152 -153 -348 -208 -551 -156 -43 11 -101 32 -129 47 -67 35
-205 173 -240 240 -61 115 -82 275 -52 402 49 207 235 391 435 430 30 6 64 13
75 15 41 9 162 -6 233 -30z"/>
<path d="M33210 10065 l0 -335 40 0 40 0 0 135 0 135 143 0 143 0 74 -135 74
-135 43 0 c51 0 56 -18 -43 157 -35 62 -64 117 -64 122 0 5 9 12 19 16 96 30
142 174 88 276 -18 33 -37 51 -76 71 l-53 28 -214 0 -214 0 0 -335z m401 265
c116 -32 133 -200 24 -246 -25 -10 -77 -14 -190 -14 l-155 0 0 135 0 135 143
0 c78 0 158 -5 178 -10z"/>
<path d="M18270 9493 c-19 -1 -87 -8 -150 -14 -523 -49 -1044 -221 -1470 -484
-326 -202 -654 -523 -862 -845 -272 -418 -430 -901 -479 -1459 -15 -174 -6
-635 15 -791 81 -585 283 -1082 613 -1505 385 -494 968 -858 1648 -1029 325
-82 582 -110 990 -110 243 0 356 4 470 18 487 57 882 175 1260 375 l130 69
378 -376 377 -377 332 333 333 332 -349 349 -348 348 62 79 c301 380 513 879
589 1387 36 238 44 372 38 664 -5 291 -17 414 -63 643 -202 1010 -832 1768
-1789 2150 -311 125 -682 208 -1068 239 -116 10 -571 13 -657 4z m696 -912
c497 -75 905 -271 1219 -585 333 -333 525 -739 601 -1271 21 -147 24 -512 5
-660 -43 -338 -146 -654 -299 -922 -26 -46 -51 -83 -57 -83 -5 0 -261 251
-567 557 l-558 558 -332 -333 -333 -332 545 -545 c500 -501 543 -547 525 -558
-50 -31 -216 -100 -322 -136 -145 -48 -307 -84 -478 -107 -156 -20 -492 -23
-640 -5 -542 67 -975 264 -1309 597 -332 330 -531 752 -602 1274 -24 172 -24
520 0 690 106 778 501 1347 1151 1661 248 121 509 187 870 223 100 10 456 -4
581 -23z"/>
<path d="M990 8995 c0 -234 4 -425 8 -425 4 0 80 23 167 50 447 141 797 207
1236 231 308 18 621 -6 899 -68 505 -111 878 -356 1059 -694 41 -76 101 -237
101 -270 0 -9 -21 -34 -46 -54 l-46 -38 108 -52 c208 -98 371 -215 462 -329
67 -85 78 -105 107 -190 63 -189 9 -398 -147 -562 -101 -106 -104 -107 -104
-31 -1 43 -7 74 -22 103 -92 179 -439 245 -925 174 -269 -40 -518 -116 -762
-234 -198 -96 -443 -247 -302 -187 187 80 594 183 822 206 l69 8 -58 -64
c-117 -129 -219 -298 -279 -464 -33 -94 -76 -284 -83 -379 l-7 -76 489 -2 489
-3 632 -1155 631 -1155 546 -3 546 -2 0 47 c0 45 -41 120 -685 1242 -377 656
-685 1195 -685 1196 0 1 21 10 48 20 26 10 99 44 162 75 375 188 644 455 814
810 120 250 176 509 176 815 0 519 -174 961 -509 1295 -312 310 -664 476
-1201 567 -97 16 -237 18 -1907 20 l-1803 4 0 -426z"/>
<path d="M10462 9238 c-49 -101 -706 -1448 -1460 -2994 -1282 -2627 -1372
-2814 -1372 -2862 l0 -52 538 0 539 0 331 717 331 718 1624 3 1623 2 331 -717
331 -718 536 -3 536 -2 0 51 c0 48 -99 254 -1457 3045 l-1457 2994 -442 0
-443 0 -89 -182z m1153 -2298 c323 -701 590 -1281 592 -1287 4 -10 -242 -13
-1211 -13 -669 0 -1216 3 -1216 6 0 6 1195 2607 1208 2628 7 13 -16 63 627
-1334z"/>
<path d="M23840 6375 l0 -3045 505 0 505 0 0 3045 0 3045 -505 0 -505 0 0
-3045z"/>
<path d="M27140 6375 l0 -3046 1978 4 c2154 3 2031 0 2302 58 238 52 527 172
712 296 369 248 602 597 690 1035 20 97 23 144 23 338 0 195 -3 240 -23 337
-44 217 -136 432 -259 606 -78 110 -257 287 -371 367 -104 73 -273 166 -374
206 -38 15 -68 30 -68 33 0 3 29 23 64 43 348 203 576 513 658 891 32 148 32
434 0 592 -60 303 -185 539 -397 751 -227 227 -551 396 -910 474 -267 57 -139
54 -2162 57 l-1863 4 0 -3046z m3646 2158 c191 -52 313 -114 425 -220 175
-166 258 -383 246 -648 -10 -211 -70 -372 -196 -522 -90 -109 -268 -217 -428
-262 -148 -41 -207 -42 -1473 -39 l-1215 3 -3 845 c-1 465 0 851 3 858 4 10
252 12 1282 9 1274 -3 1278 -3 1359 -24z m224 -2487 c446 -90 727 -357 790
-750 20 -120 8 -331 -24 -439 -101 -337 -350 -553 -737 -639 l-104 -23 -1395
0 -1395 0 -3 925 c-1 509 0 931 3 938 4 10 264 12 1392 9 1263 -3 1396 -5
1473 -21z"/>
<path d="M2955 8341 c93 -44 177 -114 254 -209 50 -63 85 -96 123 -118 58 -32
90 -34 376 -24 130 5 131 -3 -13 94 -164 111 -384 198 -650 257 -71 16 -134
29 -140 29 -5 0 17 -13 50 -29z"/>
<path d="M1647 5509 c-83 -223 -120 -446 -120 -719 -1 -263 34 -487 109 -717
66 -203 218 -485 328 -608 l35 -40 1 394 0 394 -39 61 c-134 213 -230 494
-267 779 -13 100 -15 182 -12 344 2 117 4 213 3 213 0 0 -18 -46 -38 -101z"/>
<path d="M990 3847 l0 -517 493 0 492 1 -60 27 c-164 74 -278 154 -423 296
-169 165 -303 346 -434 586 l-68 125 0 -518z"/>
<path d="M2940 2141 c-204 -30 -366 -141 -442 -301 -49 -102 -63 -167 -63
-290 0 -123 14 -188 63 -290 63 -135 200 -242 362 -286 89 -23 282 -24 370 -1
161 43 302 153 367 288 82 172 82 406 0 578 -64 133 -207 246 -361 286 -73 18
-222 26 -296 16z m229 -126 c217 -51 351 -229 351 -465 0 -238 -134 -414 -356
-466 -175 -41 -383 22 -483 146 -172 214 -131 568 83 715 113 77 264 103 405
70z"/>
<path d="M9745 2143 c-195 -23 -332 -97 -384 -208 -49 -103 -34 -228 36 -300
70 -72 162 -101 433 -135 284 -36 355 -61 400 -143 66 -116 -39 -237 -235
-272 -190 -34 -401 0 -591 96 l-74 37 0 -69 0 -68 73 -35 c293 -140 729 -117
898 48 61 60 84 115 83 206 0 64 -4 83 -29 128 -54 99 -146 142 -370 173 -357
50 -413 64 -472 121 -94 91 -24 229 141 281 58 18 94 22 191 21 143 0 270 -30
397 -94 l78 -39 0 70 0 70 -56 25 c-153 67 -374 105 -519 87z"/>
<path d="M12421 2139 c-313 -48 -509 -302 -486 -630 12 -173 59 -285 164 -390
114 -114 247 -163 441 -163 150 1 297 45 398 121 31 23 32 27 32 94 l0 70 -52
-40 c-73 -54 -147 -89 -236 -112 -172 -44 -344 -3 -465 109 -90 84 -133 179
-144 312 -11 145 29 270 118 364 93 100 223 155 365 156 108 0 281 -63 359
-131 l35 -31 0 70 c0 68 -1 72 -33 96 -110 84 -330 130 -496 105z"/>
<path d="M22461 2139 c-313 -48 -509 -302 -486 -630 12 -173 59 -285 164 -390
114 -114 247 -163 441 -163 150 1 297 45 398 121 31 23 32 27 32 94 l0 70 -52
-40 c-73 -54 -147 -89 -236 -112 -172 -44 -344 -3 -465 109 -90 84 -133 179
-144 312 -11 145 29 270 118 364 93 100 223 155 365 156 108 0 281 -63 359
-131 l35 -31 0 70 c0 68 -1 72 -33 96 -110 84 -330 130 -496 105z"/>
<path d="M26770 2141 c-204 -30 -366 -141 -442 -301 -49 -102 -63 -167 -63
-290 0 -123 14 -188 63 -290 63 -135 200 -242 362 -286 89 -23 282 -24 370 -1
161 43 302 153 367 288 60 126 78 288 47 436 -44 213 -197 374 -408 428 -73
18 -222 26 -296 16z m229 -126 c217 -51 351 -229 351 -465 0 -238 -134 -414
-356 -466 -175 -41 -383 22 -483 146 -172 214 -131 568 83 715 113 77 264 103
405 70z"/>
<path d="M29370 2141 c-204 -30 -366 -141 -442 -301 -49 -102 -63 -167 -63
-290 0 -123 14 -188 63 -290 63 -135 200 -242 362 -286 89 -23 282 -24 370 -1
161 43 302 153 367 288 60 126 78 288 47 436 -44 213 -197 374 -408 428 -73
18 -222 26 -296 16z m229 -126 c217 -51 351 -229 351 -465 0 -238 -134 -414
-356 -466 -175 -41 -383 22 -483 146 -172 214 -131 568 83 715 113 77 264 103
405 70z"/>
<path d="M30875 2140 c-182 -29 -322 -110 -409 -238 -162 -238 -132 -588 68
-780 119 -115 261 -166 461 -165 167 0 296 33 423 107 l52 31 0 262 0 263
-285 0 -285 0 0 -55 0 -55 220 0 220 0 0 -176 0 -175 -53 -24 c-241 -106 -495
-75 -649 79 -203 203 -171 569 62 724 92 62 181 87 310 87 150 0 280 -43 393
-129 l47 -36 0 69 c0 80 -2 82 -119 140 -122 62 -317 92 -456 71z"/>
<path d="M1160 1550 l0 -580 65 0 65 0 0 215 0 215 258 0 c141 0 286 5 322 11
131 21 236 93 287 198 25 50 28 67 28 156 -1 88 -4 107 -28 156 -30 63 -93
126 -157 159 -84 43 -154 50 -507 50 l-333 0 0 -580z m719 444 c67 -19 141
-90 159 -150 30 -102 6 -193 -71 -260 -73 -64 -89 -67 -399 -71 l-278 -4 0
250 0 251 268 0 c215 0 279 -3 321 -16z"/>
<path d="M4020 1550 l0 -580 65 0 65 0 0 230 0 230 247 -2 248 -3 125 -227
125 -227 73 -1 c47 0 72 4 72 11 0 7 -59 115 -132 241 -72 125 -129 229 -127
231 2 1 25 12 51 24 70 33 122 85 154 155 35 78 40 192 11 275 -37 106 -143
188 -271 212 -35 7 -192 11 -383 11 l-323 0 0 -580z m743 427 c85 -50 130
-153 108 -244 -17 -68 -53 -117 -108 -150 l-48 -28 -282 -3 -283 -3 0 231 0
231 283 -3 282 -3 48 -28z"/>
<path d="M5210 2070 l0 -60 235 0 235 0 0 -520 0 -520 65 0 65 0 0 520 0 520
230 0 230 0 0 60 0 60 -530 0 -530 0 0 -60z"/>
<path d="M6515 1553 c-157 -317 -285 -578 -285 -580 0 -1 33 -3 73 -3 l72 0
78 155 77 155 333 0 334 0 73 -155 74 -155 73 0 c42 0 73 4 73 10 0 6 -128
267 -285 580 l-285 570 -60 0 -60 0 -285 -577z m484 137 c72 -152 131 -279
131 -283 0 -4 -121 -7 -270 -7 -148 0 -270 2 -270 4 0 4 210 448 246 517 14
28 27 49 29 47 1 -1 62 -127 134 -278z"/>
<path d="M7760 1550 l0 -580 450 0 450 0 0 60 0 60 -385 0 -385 0 0 520 0 520
-65 0 -65 0 0 -580z"/>
<path d="M10720 1550 l0 -580 480 0 480 0 0 60 0 60 -415 0 -415 0 0 210 0
210 385 0 385 0 0 55 0 55 -385 0 -385 0 0 195 0 195 405 0 405 0 0 60 0 60
-470 0 -470 0 0 -580z"/>
<path d="M13290 1763 c0 -281 4 -384 15 -436 37 -174 166 -306 346 -354 85
-22 262 -22 346 0 184 49 311 178 348 354 11 52 15 155 15 436 l0 367 -65 0
-65 0 0 -332 c0 -351 -7 -436 -39 -512 -76 -177 -319 -263 -524 -186 -106 40
-181 114 -219 215 -21 57 -22 77 -26 438 l-4 377 -64 0 -64 0 0 -367z"/>
<path d="M14770 1550 l0 -580 65 0 65 0 0 230 0 230 247 -2 248 -3 125 -227
125 -227 73 -1 c47 0 72 4 72 11 0 7 -59 115 -132 241 -72 125 -129 229 -127
231 2 1 25 12 51 24 70 33 122 85 154 155 35 78 40 192 11 275 -37 106 -143
188 -271 212 -35 7 -192 11 -383 11 l-323 0 0 -580z m743 427 c150 -88 150
-306 0 -394 l-48 -28 -282 -3 -283 -3 0 231 0 231 283 -3 282 -3 48 -28z"/>
<path d="M16140 1550 l0 -580 65 0 65 0 0 580 0 580 -65 0 -65 0 0 -580z"/>
<path d="M16560 2070 l0 -60 235 0 235 0 0 -520 0 -520 65 0 65 0 0 520 0 520
230 0 230 0 0 60 0 60 -530 0 -530 0 0 -60z"/>
<path d="M17750 2120 c0 -5 113 -160 250 -345 l250 -335 0 -235 0 -235 70 0
70 0 0 235 0 235 250 335 c138 185 250 340 250 345 0 6 -33 10 -72 10 l-73 -1
-210 -284 c-115 -157 -212 -285 -215 -285 -3 0 -99 128 -215 285 l-210 284
-72 1 c-40 0 -73 -4 -73 -10z"/>
<path d="M19410 2070 l0 -60 235 0 235 0 0 -520 0 -520 65 0 65 0 0 520 0 520
230 0 230 0 0 60 0 60 -530 0 -530 0 0 -60z"/>
<path d="M20760 1550 l0 -580 480 0 480 0 0 60 0 60 -415 0 -415 0 0 210 0
210 385 0 385 0 0 55 0 55 -385 0 -385 0 0 195 0 195 405 0 405 0 0 60 0 60
-470 0 -470 0 0 -580z"/>
<path d="M23350 1550 l0 -580 65 0 65 0 0 270 0 270 400 0 400 0 0 -270 0
-270 65 0 65 0 0 580 0 580 -65 0 -65 0 0 -255 0 -255 -400 0 -400 0 0 255 0
255 -65 0 -65 0 0 -580z"/>
<path d="M24840 1550 l0 -580 65 0 65 0 2 476 3 475 403 -475 403 -476 64 0
65 0 0 580 0 580 -65 0 -65 0 -2 -476 -3 -475 -403 475 -403 476 -64 0 -65 0
0 -580z"/>
<path d="M27840 1550 l0 -580 450 0 450 0 0 60 0 60 -385 0 -385 0 0 520 0
520 -65 0 -65 0 0 -580z"/>
<path d="M31680 2120 c0 -5 113 -160 250 -345 l250 -335 0 -235 0 -235 70 0
70 0 0 235 0 235 250 335 c138 185 250 340 250 345 0 6 -33 10 -72 10 l-73 -1
-210 -284 c-115 -157 -212 -285 -215 -285 -3 0 -99 128 -215 285 l-210 284
-72 1 c-40 0 -73 -4 -73 -10z"/>
</g>
</svg>
