<svg id="Layer_1" data-name="Layer 1" xmlns="http://www.w3.org/2000/svg" viewBox="0 0 976.18 425.84"><defs><style>.cls-1,.cls-2{fill:#406ead;}.cls-2{font-size:44.64px;font-family:BwAletaNo20-Regular, "Bw Aleta No 20";}</style></defs><title>lOGO RAQIB</title><path class="cls-1" d="M68.57,246.86H41V218.1C47.85,232.19,57.1,242.78,68.57,246.86Z"/><path class="cls-1" d="M68.8,222.48v21.83c-13.82-15.6-17.13-42-8.32-61.07C58.57,198.71,61.85,212.18,68.8,222.48Z"/><path class="cls-1" d="M92.92,107.88c9.45,1.67,18.85,4.27,26.24,10.77-4.46-.85-7.58.69-11.22.08C101.37,117.63,103.58,112.08,92.92,107.88Z"/><path class="cls-1" d="M194.94,244.22v2.64h-30L130,183H103a48.22,48.22,0,0,1,3.62-15.26,33.58,33.58,0,0,1,8.45-11.83c-1.78.13-3.56.32-5.27.61-.82.1-1.62.23-2.42.39-2.95.54-5.72,1.21-8.2,1.9l-1.86.54a80.31,80.31,0,0,0-8.86,3.17c14.21-10.42,31.64-13.55,42.71-13.22,9.27.26,16.23,3.81,14.37,10.34,7.15-4.92,9.38-13.11,6.69-19.42-2.82-6.65-11-11.38-18.24-14.41l2.62-2.38c-5.7-25.14-38.94-33.2-74.46-26.55A162.93,162.93,0,0,0,41,102.72V79h90.56c35.34,0,58.76,20.78,58.76,52.14,0,22.53-12.59,39.54-33.13,47.28Z"/><path class="cls-1" d="M409,244.21v2.65h-29.6L361,207.1H271.8l-18.34,39.76H223.64v-2.65L304.27,79h24.3Zm-59-61-33.58-72.89-33.58,72.89Z"/><path class="cls-1" d="M596.29,219.25l19.22,19.22L597.18,256.8,576.41,236c-13.92,8.39-31.37,13-51.25,13-54.12,0-90.35-34.46-90.35-86.15S471,76.77,525.16,76.77c54.34,0,90.35,34.46,90.35,86.15C615.51,185.45,608.66,204.67,596.29,219.25Zm-39.1-2.43-30-30,18.34-18.34,30.92,30.93c6.41-9.94,10.16-22.31,10.16-36.45,0-36.67-24.52-61.41-61.41-61.41s-61.41,24.74-61.41,61.41,24.52,61.41,61.41,61.41C537.31,224.33,548.14,221.68,557.19,216.82Z"/><path class="cls-1" d="M670.06,79h27.83V246.86H670.06Z"/><path class="cls-1" d="M918.34,198.93c0,28.72-22.53,47.93-56.11,47.93H760.84V79h94.32c32,0,53.46,17.45,53.46,44,0,14.8-7.73,26.51-21,33.58C906.63,163.58,918.34,179.05,918.34,198.93ZM788.67,150.11h65.17c15.68,0,26.07-9.5,26.07-23.86,0-14.14-10.39-23.41-26.07-23.41H788.67Zm101,47c0-15.46-11.48-25.62-28.93-25.62h-72V223h72C878.14,223,889.62,212.84,889.62,197.16Z"/><text class="cls-2" transform="translate(40.98 312.5)">PORTAL ACCESS TECHNOLOGY</text><path class="cls-1" d="M944.61,70.34v.22h-2.39l-4.1-7.45h-7.84v7.45h-2.2V52H938c3.73,0,6.22,2.22,6.22,5.56a5.26,5.26,0,0,1-3.88,5.2Zm-14.33-9.13h7.57c2.41,0,4-1.46,4-3.64s-1.63-3.66-4-3.66h-7.57Z"/><path class="cls-1" d="M936,79a17.7,17.7,0,1,1,17.69-17.7A17.72,17.72,0,0,1,936,79Zm0-33.57a15.88,15.88,0,1,0,15.87,15.87A15.89,15.89,0,0,0,936,45.41Z"/></svg>